<svg xmlns="http://www.w3.org/2000/svg" viewBox="0 0 381.43 628.45">
    <title>dooodler</title>
    <g id="Layer_1" data-name="Layer 1" style="fill:none;stroke:#000000;stroke-width:6;stroke-linecap:round;stroke-linejoin:round;">
        <path class="cls-1"
              d="M190.15,116.74a578,578,0,0,0-63.58-68.58c-10-9.15-20.31-19.37-33.45-23.76-14-4.68-29.14-2.59-43.43-.6-3.18.44-1.82,5.25,1.33,4.82,14.38-2,29.94-4.09,43.73,1.74,13,5.48,23.56,16.84,33.67,26.33a579.32,579.32,0,0,1,58.2,63.59c2,2.52,5.5-1,3.53-3.54Z"
              transform="translate(-14.81 -21.57)"/>
        <path class="cls-1"
              d="M221.61,120.47C264,123,306.52,124,349,123.77c3.22,0,3.23-5,0-5-42.49.24-85-.75-127.4-3.3-3.21-.19-3.2,4.81,0,5Z"
              transform="translate(-14.81 -21.57)"/>
        <path class="cls-1"
              d="M144.25,583.59c-10.27,3-20.73,5.38-30.93,8.65a139.58,139.58,0,0,0-28.92,13.4c-19,11.27-40.65,24-62.92,13.4-2.89-1.38-5.43,2.93-2.53,4.32,20.73,9.9,41.81,2,60.32-8.85,10.41-6.12,20.46-12.35,31.94-16.31,11.27-3.89,22.94-6.44,34.37-9.79,3.08-.9,1.77-5.73-1.33-4.82Z"
              transform="translate(-14.81 -21.57)"/>
        <path class="cls-1"
              d="M177.1,572.75c-4.81,1.92-9.67,3.67-14.58,5.31-3,1-1.73,5.85,1.33,4.83,4.91-1.64,9.77-3.4,14.58-5.32,2.95-1.18,1.66-6-1.33-4.82Z"
              transform="translate(-14.81 -21.57)"/>
        <path class="cls-1"
              d="M206.79,573.93c23.91,6.29,49.59,6,74.12,7.67,26.25,1.79,52.49,3.95,78.54,7.79,3.14.46,4.5-4.36,1.33-4.83-25.2-3.71-50.56-5.92-76-7.69s-52-1.27-76.7-7.76c-3.11-.82-4.44,4-1.33,4.82Z"
              transform="translate(-14.81 -21.57)"/>
        <path class="cls-1"
              d="M128.68,624.43c1.49-16.77,25-22.47,38.49-23.78,16.72-1.62,33.78.17,50.5,1l54.25,2.74c17.72.89,35.57,1.27,53.23,3.05a153.28,153.28,0,0,1,16.08,2.43c5.14,1.09,10.95,1.75,13,7.28,3.48,9.33,6.08,19.11,9.09,28.6,1,3.06,5.8,1.75,4.82-1.33-3-9.51-5.7-19.21-9.09-28.6-2.9-8.07-9.64-9.38-17.42-11-19.59-4-40-4-59.86-5l-63.13-3.19c-18.6-.94-37.78-3.16-56.32-.48-15.46,2.23-37,9.94-38.65,28.2-.28,3.2,4.72,3.18,5,0Z"
              transform="translate(-14.81 -21.57)"/>
        <path class="cls-1"
              d="M161.77,47c-8.61,12.78,3.32,27.33,15.69,31.17,8.52,2.65,17.7,2.2,26.51,2.62a289.38,289.38,0,0,1,33,3.65c20.81,3.41,41.33,8.31,62.09,12,10.1,1.78,20.27,3.28,30.5,4.18,9.34.82,19.31,1.86,27.93-2.61,9.32-4.83,17.35-13.2,25.41-19.82,6.67-5.5,14.53-11.38,13.23-21a2.51,2.51,0,0,0-2.41-1.83l-4.91-.17c-3.21-.11-3.21,4.89,0,5l4.91.17-2.41-1.84c1.1,8.11-10.34,14.8-15.62,19.14-6.57,5.39-13.12,12.12-20.72,16-8.19,4.21-18.47,2.59-27.28,1.75S310,93.29,301.27,91.76c-34.15-6-67.79-15.12-102.62-16.15-8.75-.25-18.81-.13-26.4-5.2-6.61-4.41-11-13.67-6.17-20.86,1.81-2.68-2.52-5.18-4.31-2.53Z"
              transform="translate(-14.81 -21.57)"/>
        <path class="cls-2"
              d="M206.08,105.31l10.8-2.47a46,46,0,0,1,11.64-1.62c12.81.46,22.92,11.68,27.52,23.64,2.18,5.68,3.22,12.81-1,17.23"
              transform="translate(-14.81 -21.57)"/>
        <path class="cls-1"
              d="M206.75,107.72c12.42-2.84,24.89-7.32,35.77,1.84,6.91,5.81,18.08,21.86,10.81,30.77-2,2.47,1.49,6,3.53,3.53,8.84-10.83-.38-27.55-8.71-35.9-4.58-4.59-10.36-8-16.83-9-8.59-1.22-17.62,2-25.9,3.9-3.14.72-1.81,5.54,1.33,4.82Z"
              transform="translate(-14.81 -21.57)"/>
        <path class="cls-2" d="M233.68,167.06c-1.69,6.72-7.13,12-13.3,15.14s-13.08,4.48-19.89,5.77"
              transform="translate(-14.81 -21.57)"/>
        <path class="cls-1"
              d="M45.52,26.81a308.83,308.83,0,0,0-3.36,38.41c-.07,3.22,4.93,3.22,5,0a299,299,0,0,1,3.18-37.08c.48-3.15-4.34-4.51-4.82-1.33Z"
              transform="translate(-14.81 -21.57)"/>
        <path class="cls-1"
              d="M29.85,71.82c8-3.38,18.38-2.34,26.5.51,8.84,3.11,8.12,13.7,7.9,21.37a266.45,266.45,0,0,1-2.12,26.77q-1,7.27-2.33,14.5c-.87,4.63-.89,12.15-6.51,13.25-4,.78-8.85-.63-12.82-1.15-4.14-.54-9.49-.34-13.36-1.86-4.95-1.93-4.66-8.5-5.31-13q-1-7.14-1.52-14.34a200.19,200.19,0,0,1-.07-26.38c.26-4,.36-8.35,1.55-12.26s7.17-11.3,11.43-5.74c1.93,2.52,6.28,0,4.32-2.52-3.7-4.83-10.29-5.33-15.15-1.69-6.12,4.57-6.51,13.39-7,20.33a199.06,199.06,0,0,0,.16,31.08q.62,7.38,1.76,14.71c.6,3.86.81,8.78,3.57,11.85,2.11,2.34,5.12,2.9,8.1,3.32,5.08.74,10.18,1.33,15.27,2,6.83.89,15.22,2.1,18.12-5.89,3.36-9.26,4.15-20.26,5.27-30,1.18-10.19,2.28-20.84,1.66-31.11-.47-7.71-3.15-14.92-10.88-17.78-9-3.34-20.89-4.55-29.85-.78-2.92,1.23-1.64,6.07,1.33,4.83Z"
              transform="translate(-14.81 -21.57)"/>
        <path class="cls-1"
              d="M41.17,151.48l.56,61.1c.18,19.88-.07,39.83,1.2,59.68s6.31,38.61,8.85,58.14c2.57,19.75,1.37,40.09,1.35,60l0,33.76c0,11.39.39,22.89-2.74,33.95-.88,3.1,3.94,4.43,4.82,1.33,2.46-8.69,2.87-17.63,2.91-26.61,0-10.17,0-20.34,0-30.52,0-20.52.84-41.24-.39-61.74-1.2-19.79-7.09-38.87-9-58.58-2-20.08-1.72-40.34-1.9-60.51l-.64-70c0-3.21-5-3.22-5,0Z"
              transform="translate(-14.81 -21.57)"/>
        <path class="cls-1"
              d="M29.33,468.15l-.35-.7V470c1.07-2,11.56-1.4,13.53-1.46,3.82-.1,7.64-.08,11.46,0a30.68,30.68,0,0,1,9.29,1.19c5.32,1.82,5.8,5.31,4.44,10.36a89.82,89.82,0,0,0-3.25,22.36c0,3.7,0,7.4.11,11.1.07,4,1,9.56-1.49,12.85-2,2.7-6.22,4.86-9.07,6.59a33.15,33.15,0,0,1-10.4,4.49c-9.4,1.93-16.58-4-18.86-12.82-2-7.69-1-16.21-.54-24,.5-8.26,1.57-16.36,4.42-24.17,1.1-3-3.73-4.34-4.83-1.33-3,8.22-4.07,16.81-4.59,25.5-.5,8.31-1.43,17.22.71,25.38,3.88,14.77,17.72,20.29,31.32,14.15,5.55-2.51,14.16-6.82,17.1-12.53,1.51-2.92,1.32-6.24,1.3-9.43,0-4.94-.23-9.87-.19-14.81a86.85,86.85,0,0,1,1.06-13.95c.71-4.12,2.6-8.09,3-12.24.58-5.93-2.89-10.15-8.32-12.08-8.07-2.87-18.12-1.85-26.48-1.43-3.5.17-17.38-.24-13.68,7,1.46,2.86,5.77.34,4.31-2.53Z"
              transform="translate(-14.81 -21.57)"/>
        <path class="cls-1"
              d="M34.66,540.72l-.07,28.8c0,9.56,1.18,20.16-1,29.53-2.54,10.84-12.44,28.77,2.49,35.76,2.9,1.36,5.44-2.95,2.52-4.32-7-3.28-6.25-11.81-4.28-18,2.31-7.26,4.93-13.59,5.18-21.33.54-16.78.13-33.63.17-50.42,0-3.22-5-3.22-5,0Z"
              transform="translate(-14.81 -21.57)"/>
        <path class="cls-1"
              d="M331,125.08c2.78,1.58,5.16,1.26,8.17.53,5.72-1.38,10.27.26,11.92,6.43,1.39,5.19-.23,10.78-1.17,15.91q-1.29,7-2.23,14A287.5,287.5,0,0,0,346,223.76c1.67,20.62,6.41,40.83,8.15,61.43a201.46,201.46,0,0,1,.19,31.65c-.62,8.49-1.38,24.53-13.54,23.69-3.21-.22-3.2,4.78,0,5,16.28,1.12,17.94-19.09,18.67-30.67,1.15-18.28-.68-36.3-3.51-54.34-3-19-5.69-37.81-5.89-57a287.66,287.66,0,0,1,5-56.1c1.42-7.54,3-16.07-2.17-22.59a12.88,12.88,0,0,0-7.6-4.85c-3.59-.68-8.72,2.59-11.8.83-2.8-1.59-5.33,2.73-2.53,4.32Z"
              transform="translate(-14.81 -21.57)"/>
        <path class="cls-1"
              d="M345.54,340.9c3.54,1.26,7.37,2.55,10.13,5.2,3.35,3.21,4.1,7.8,4.28,12.23.34,8.57,0,17.23-.11,25.81q-.3,26.88-1,53.76-1.47,53.75-4.74,107.43c-.62,10.12-.89,20.37-2,30.44-.27,2.42-.64,4.9-3.22,5.92-1.63.64-3.75.22-5.48.34a10.3,10.3,0,0,0-6.94,2.72c-2.33,2.22,1.21,5.75,3.54,3.53s6.66-1,9.62-1.66a8.63,8.63,0,0,0,5.8-4.06c1.46-2.5,1.6-5.61,1.8-8.42.37-5,.69-9.93,1-14.9q2-30.3,3.38-60.65,2.79-60.16,3.32-120.43c.08-9,1.58-19.44-1.17-28.13-2.53-8-9.46-11.32-16.85-13.95-3-1.09-4.34,3.74-1.33,4.82Z"
              transform="translate(-14.81 -21.57)"/>
        <path class="cls-1"
              d="M161.08,51.45q111.27,3.66,222.39,10.77c3.21.21,3.2-4.79,0-5Q272.36,50.13,161.08,46.45c-3.22-.11-3.21,4.89,0,5Z"
              transform="translate(-14.81 -21.57)"/>
        <path class="cls-1"
              d="M124.89,621.54a42,42,0,0,0-6,15.83c-.29,1.77,1.09,3.7,3.08,3.08,35.45-11,72.83-6.64,109-2.47q56.91,6.56,114.08,10.23,7.83.49,15.67.93c4,.23,9.61,1.49,13.53.5,4.82-1.21,4-7.61-1.13-6.61a2.54,2.54,0,0,0-1.83,2.41l0,.48c-.11,3.22,4.89,3.22,5,0l0-.48-1.84,2.42-.11.12-1.74-1.74.18.59.64-2.44c-1.19,1.49-10-.1-11.72-.19q-6.36-.36-12.73-.75-12.74-.78-25.46-1.71-25.44-1.86-50.83-4.31c-33-3.2-66.22-8.86-99.48-9-17.79-.06-35.56,1.88-52.59,7.18l3.07,3.07a38.75,38.75,0,0,1,5.51-14.64c1.72-2.73-2.61-5.24-4.32-2.52Z"
              transform="translate(-14.81 -21.57)"/>
        <path class="cls-2"
              d="M251.38,140.27c-6.06-5.93-13.19-12.29-21.66-11.84s-15,7.65-20.4,14.3a49.39,49.39,0,0,0,1.25-7.14"
              transform="translate(-14.81 -21.57)"/>
        <path class="cls-1"
              d="M253.15,138.5c-6.53-6.33-14.4-13.35-24.17-12.5-9.27.81-15.9,8.21-21.43,15l4.18,2.43a73,73,0,0,0,1.34-7.8c.37-3.19-4.63-3.16-5,0a60.82,60.82,0,0,1-1.16,6.47c-.52,2.24,2.49,4.5,4.18,2.44,4.55-5.56,9.94-12.3,17.5-13.4,8.49-1.24,15.43,5.51,21,10.94,2.31,2.24,5.85-1.29,3.54-3.54Z"
              transform="translate(-14.81 -21.57)"/>
        <path class="cls-2"
              d="M207,136.48l-1.25-6a2.92,2.92,0,0,0-1.06-2c-1-.57-2.15.08-3.05.73a139.51,139.51,0,0,0-11.83,9.45"
              transform="translate(-14.81 -21.57)"/>
        <path class="cls-1"
              d="M209.4,135.82c-.81-3.87-1.1-11.28-6.93-9.79-2.46.62-4.7,2.9-6.66,4.42-2.67,2.06-5.25,4.21-7.77,6.44s1.13,5.66,3.53,3.54c2.84-2.51,5.75-4.93,8.77-7.2a10.11,10.11,0,0,1,2-1.5c1.18-.42.36-.76,1.07.05s.89,4.22,1.13,5.37c.66,3.14,5.48,1.81,4.82-1.33Z"
              transform="translate(-14.81 -21.57)"/>
        <path class="cls-2"
              d="M204.37,107.07a54.11,54.11,0,0,0-18.71,18.43c-4.32,7.09-7.11,15.34-13.2,21a24.21,24.21,0,0,0,19.11-9.78"
              transform="translate(-14.81 -21.57)"/>
        <path class="cls-1"
              d="M203.11,104.91a58.45,58.45,0,0,0-17.91,16.71c-5.2,7.51-7.89,16.59-14.51,23.1a2.53,2.53,0,0,0,1.77,4.27,27.37,27.37,0,0,0,20.88-10.51c2-2.51-1.56-6.07-3.54-3.53a22.56,22.56,0,0,1-17.34,9l1.77,4.27c5.83-5.75,8.76-13.19,12.8-20.16a52.9,52.9,0,0,1,18.61-18.87c2.74-1.67.23-6-2.53-4.32Z"
              transform="translate(-14.81 -21.57)"/>
        <path class="cls-1"
              d="M179.88,144a100.27,100.27,0,0,0-.28,32.34c.49,3.17,5.31,1.83,4.83-1.33a92.08,92.08,0,0,1,.27-29.68c.54-3.14-4.28-4.5-4.82-1.33Z"
              transform="translate(-14.81 -21.57)"/>
        <path class="cls-1"
              d="M249.55,137.26l-10.5,17.3c-1.67,2.76,2.65,5.28,4.32,2.53l10.5-17.31c1.67-2.76-2.65-5.27-4.32-2.52Z"
              transform="translate(-14.81 -21.57)"/>
        <path class="cls-1"
              d="M241,153.28l-1.71,13.12,1.83-2.41-9,1.32c-3.17.47-1.83,5.29,1.33,4.82l9-1.31c1.18-.18,1.71-1.41,1.84-2.42L246,153.28c.42-3.18-4.59-3.15-5,0Z"
              transform="translate(-14.81 -21.57)"/>
        <path class="cls-1"
              d="M52.62,318c24.9-1.9,48.42,8.82,73.11,9.92,3.22.14,3.21-4.86,0-5-24.7-1.1-48.16-11.82-73.11-9.92-3.19.24-3.21,5.24,0,5Z"
              transform="translate(-14.81 -21.57)"/>
        <path class="cls-1"
              d="M231.27,166.4c-4,13.62-19.27,16.84-31.44,19.16-3.16.6-1.83,5.42,1.32,4.82,14.14-2.69,30.36-7.12,34.94-22.65.91-3.1-3.91-4.42-4.82-1.33Z"
              transform="translate(-14.81 -21.57)"/>
        <path class="cls-1"
              d="M156.23,180.14a21,21,0,0,1,27.26,7.69c1.67,2.74,6,.23,4.31-2.53a26.13,26.13,0,0,0-34.09-9.48c-2.86,1.48-.33,5.8,2.52,4.32Z"
              transform="translate(-14.81 -21.57)"/>
        <path class="cls-1"
              d="M181.87,185c3.36,5.18,3.07,10.76.44,16.21-1.4,2.88,2.91,5.42,4.31,2.52,3.39-7,3.92-14.54-.43-21.26-1.74-2.69-6.07-.19-4.32,2.53Z"
              transform="translate(-14.81 -21.57)"/>
        <path class="cls-2"
              d="M202.71,190.52a57.94,57.94,0,0,0-3.2,20.26c.05,2.49.31,5.09,1.68,7.17s4.17,3.41,6.43,2.36"
              transform="translate(-14.81 -21.57)"/>
        <path class="cls-1"
              d="M200.3,189.86c-2.49,7.55-4.39,16.6-3,24.58,1,5.4,5.15,9.95,11,8.28,3.09-.88,1.77-5.71-1.33-4.82-9.12,2.61-2.9-23.49-1.84-26.71,1-3.06-3.81-4.38-4.82-1.33Z"
              transform="translate(-14.81 -21.57)"/>
        <path class="cls-2" d="M209.61,220.28a14.8,14.8,0,0,0,8.34-9.69" transform="translate(-14.81 -21.57)"/>
        <path class="cls-1"
              d="M210.87,222.44a17.57,17.57,0,0,0,9.5-11.19c.88-3.1-3.94-4.42-4.83-1.33a12.74,12.74,0,0,1-7.19,8.21c-2.93,1.33-.39,5.64,2.52,4.31Z"
              transform="translate(-14.81 -21.57)"/>
        <path class="cls-2" d="M218.48,211.55a71,71,0,0,0,29.77-15.4" transform="translate(-14.81 -21.57)"/>
        <path class="cls-1"
              d="M219.14,214A76.6,76.6,0,0,0,250,197.91c2.46-2.08-1.09-5.61-3.53-3.53a71.1,71.1,0,0,1-28.68,14.76c-3.11.8-1.79,5.62,1.33,4.82Z"
              transform="translate(-14.81 -21.57)"/>
        <path class="cls-2"
              d="M245.75,170.53c6.09,2.53,11.55,6.34,16.95,10.12,6.1,4.26,12.3,8.62,16.86,14.5,5.22,6.72,8,15,10.61,23.09l4.42,13.52c1.33,4.06,2.73,8.24,5.56,11.42"
              transform="translate(-14.81 -21.57)"/>
        <path class="cls-1"
              d="M244.49,172.69c7.62,3.34,14.47,8.22,21.17,13.1s12.44,10.33,16.23,17.8c3.54,7,5.66,14.66,8.08,22.08,2.2,6.71,3.9,13.69,8.42,19.28,2,2.5,5.54-1.06,3.53-3.54-5.15-6.39-6.82-16.16-9.34-23.84-2.36-7.17-4.75-14.54-8.9-20.92-4-6.17-9.59-10.88-15.5-15.17-6.71-4.88-13.54-9.76-21.17-13.11-2.91-1.28-5.46,3-2.52,4.32Z"
              transform="translate(-14.81 -21.57)"/>
        <path class="cls-2"
              d="M300.66,243.11c-4.78,1.37-10,1.79-14.65,0-7.89-3.1-12-11.7-14.5-19.81s-4.23-16.89-10-23.13A23,23,0,0,0,241,193.22"
              transform="translate(-14.81 -21.57)"/>
        <path class="cls-1"
              d="M300,240.7c-9.89,2.59-17.68-.29-22.56-9.35-3.55-6.58-4.68-14-7.27-21-4.85-13-15.49-21.55-29.83-19.54-3.18.44-1.83,5.26,1.32,4.82,9.56-1.34,17.92,3.79,22.09,12.28,3.34,6.8,4.42,14.45,7.27,21.45,2.18,5.34,5.27,10.56,10.09,13.91,6.06,4.2,13.35,4,20.22,2.25,3.11-.82,1.79-5.64-1.33-4.82Z"
              transform="translate(-14.81 -21.57)"/>
        <path class="cls-1"
              d="M213,224.19c-4.07,10.27,3.36,20.63,13.31,23.45,10.46,3,23.5-.3,29.28-10,1.65-2.77-2.67-5.28-4.32-2.52-8.29,13.9-41,9.52-33.45-9.62,1.19-3-3.65-4.29-4.82-1.33Z"
              transform="translate(-14.81 -21.57)"/>
        <path class="cls-1"
              d="M253.14,242.55A2.63,2.63,0,0,1,255,245.5a2.52,2.52,0,0,0,2.5,2.5,2.55,2.55,0,0,0,2.5-2.5,7.63,7.63,0,0,0-5.55-7.77c-3.1-.87-4.43,4-1.33,4.82Z"
              transform="translate(-14.81 -21.57)"/>
        <path class="cls-1" d="M271.21,232.52v8c0,3.22,5,3.23,5,0v-8c0-3.21-5-3.22-5,0Z"
              transform="translate(-14.81 -21.57)"/>
        <path class="cls-1"
              d="M254.1,245.2c-2.15-1.57-4.22-1.48-6.55-.39-1.59.74-1.68,3.6,0,4.31A33.75,33.75,0,0,0,283,243.83c2.46-2.07-1.09-5.59-3.53-3.53a28.53,28.53,0,0,1-29.37,4.51v4.31l1.51.4c2.6,1.9,5.1-2.44,2.52-4.32Z"
              transform="translate(-14.81 -21.57)"/>
        <path class="cls-1"
              d="M182,202.43c-2.27,29.59,27.28,46.15,51.4,54.08,13.7,4.5,29.13,7.86,43.64,6.72,10.19-.79,21.25-4.43,25.54-14.55,1.24-2.93-3.06-5.48-4.32-2.52C294.06,256,282.65,258.35,273,258.4c-12.93.06-26-2.69-38.26-6.71-22-7.25-49.82-22-47.73-49.26.24-3.21-4.76-3.2-5,0Z"
              transform="translate(-14.81 -21.57)"/>
        <path class="cls-1"
              d="M148.77,178.47a289.57,289.57,0,0,0-6.57,37.08c-1.16,10.56-3,20.77,5.86,28.37,9.28,7.94,19.85,14.67,29.7,21.87,9.68,7.06,19.44,16.14,31.26,19.27,3.12.82,4.44-4,1.33-4.82-10.43-2.76-19.12-10.78-27.66-17-9.33-6.81-18.74-13.54-28-20.45-4.58-3.42-8.41-6.79-8.59-12.92-.15-5,.63-10.23,1.2-15.24a279.69,279.69,0,0,1,6.29-34.81c.76-3.12-4.06-4.46-4.82-1.33Z"
              transform="translate(-14.81 -21.57)"/>
        <path class="cls-1"
              d="M206.06,281.53a21.5,21.5,0,0,0,34.76,4.2c2.2-2.35-1.33-5.89-3.54-3.54-8,8.56-21.15,7.06-26.9-3.19-1.58-2.8-5.9-.28-4.32,2.53Z"
              transform="translate(-14.81 -21.57)"/>
        <path class="cls-1"
              d="M234.44,289.62q28.08-4.32,56-9.52c12.71-2.38,29.08-6.7,29.65-22.45.11-3.22-4.89-3.22-5,0-.59,16.17-24,17.29-35.62,19.4q-23.14,4.18-46.39,7.75c-3.17.49-1.83,5.31,1.33,4.82Z"
              transform="translate(-14.81 -21.57)"/>
        <path class="cls-1"
              d="M299.14,242.56a16.15,16.15,0,0,1,9.74,23.91c-1.57,2.81,2.74,5.33,4.32,2.52a21.22,21.22,0,0,0-12.73-31.25c-3.1-.89-4.42,3.93-1.33,4.82Z"
              transform="translate(-14.81 -21.57)"/>
        <path class="cls-1"
              d="M301.34,279.52a194.11,194.11,0,0,1-3.45,37.26c-.6,3.14,4.22,4.49,4.82,1.33a199.87,199.87,0,0,0,3.63-38.59c0-3.21-5-3.22-5,0Z"
              transform="translate(-14.81 -21.57)"/>
        <path class="cls-1"
              d="M297.07,321.49c-1.41,11.09-15.12,7.8-20.31,2-4.31-4.85-6.34-11.3-8.38-17.32-3.44-10.17-8-20.79-18.78-24.72-3-1.1-4.34,3.73-1.33,4.82,15.48,5.63,14.67,27.63,23.63,39.16,4.4,5.66,11.26,9.6,18.6,8.4a13.78,13.78,0,0,0,11.57-12.3c.4-3.19-4.6-3.16-5,0Z"
              transform="translate(-14.81 -21.57)"/>
        <path class="cls-1"
              d="M271.19,282.51a67,67,0,0,1,11.23,19.65c1.08,3,5.91,1.71,4.82-1.33A73.94,73.94,0,0,0,274.72,279c-2-2.5-5.55,1.06-3.53,3.53Z"
              transform="translate(-14.81 -21.57)"/>
        <path class="cls-1"
              d="M285.33,296.73c.29-6.51,3.76-13.26,10-15.87,2.93-1.22,1.64-6.06-1.33-4.82-8.44,3.52-13.28,11.7-13.69,20.69-.14,3.22,4.86,3.21,5,0Z"
              transform="translate(-14.81 -21.57)"/>
        <path class="cls-1"
              d="M139.47,230.9l-8.83,63c-2.7,19.32-5.76,38.69-2.84,58.18.48,3.17,5.3,1.82,4.83-1.33-3-19.82.64-39.84,3.39-59.46l8.27-59.1c.44-3.15-4.37-4.51-4.82-1.33Z"
              transform="translate(-14.81 -21.57)"/>
        <path class="cls-1"
              d="M127.37,357.79c7.06,11.28,25.33,4.16,35.09,1.5a278.05,278.05,0,0,0,47.78-18c2.9-1.4.36-5.71-2.53-4.32a271.46,271.46,0,0,1-39.52,15.43q-9.66,2.91-19.53,5.09c-5.2,1.15-13.52,3.24-17-2.28-1.7-2.72-6-.21-4.31,2.53Z"
              transform="translate(-14.81 -21.57)"/>
        <path class="cls-1"
              d="M316.86,271.36a10.22,10.22,0,0,0-10.71-2,2.57,2.57,0,0,0-1.75,3.07,2.52,2.52,0,0,0,3.07,1.75,5.36,5.36,0,0,1,5.86.74c2.39,2.14,5.94-1.38,3.53-3.53Z"
              transform="translate(-14.81 -21.57)"/>
        <path class="cls-1" d="M311.36,270.17l-4-1A2.5,2.5,0,0,0,306,274l4,1a2.5,2.5,0,1,0,1.33-4.82Z"
              transform="translate(-14.81 -21.57)"/>
        <path class="cls-1" d="M303.71,278h4a2.5,2.5,0,1,0,0-5h-4a2.5,2.5,0,0,0,0,5Z"
              transform="translate(-14.81 -21.57)"/>
        <path class="cls-1"
              d="M313.35,276.19c3.39.3,2.39,12.51,2.48,14.63.26,6.34,1,12.64,1.82,18.92,1.52,11.49,3.55,22.93,4.8,34.45,2.25,20.78,0,50-24.58,56.26-3.11.8-1.79,5.62,1.33,4.82,27.22-7,30.78-38.56,28.16-61.89-1.66-14.67-4.45-29.18-5.92-43.87-.69-6.92-.08-14.13-1.28-21-.7-3.94-2.61-7-6.81-7.35-3.21-.28-3.19,4.72,0,5Z"
              transform="translate(-14.81 -21.57)"/>
        <path class="cls-1"
              d="M238.69,395.51c-10.35-1.8-20.62-3.94-30.78-6.59-3.12-.81-4.45,4-1.33,4.83,10.16,2.64,20.43,4.78,30.78,6.58,3.15.54,4.5-4.27,1.33-4.82Z"
              transform="translate(-14.81 -21.57)"/>
        <path class="cls-1"
              d="M297,400.39c-19.73,3.54-39.35-3.38-58.93-5-3.2-.27-3.19,4.74,0,5,20.16,1.64,39.92,8.44,60.26,4.79,3.16-.57,1.82-5.39-1.33-4.82Z"
              transform="translate(-14.81 -21.57)"/>
        <path class="cls-1"
              d="M278.72,334.67c-.86,5.07.1,10.29-1.09,15.29-.74,3.13,4.08,4.47,4.83,1.33,1.2-5.07.22-10.21,1.08-15.29.54-3.15-4.28-4.5-4.82-1.33Z"
              transform="translate(-14.81 -21.57)"/>
        <path class="cls-1"
              d="M248.18,286.12c-6,4.61-4,12-1.19,18,1.63,3.47,3.62,7.07,6.73,9.42a12.92,12.92,0,0,0,4.53,2.21c1.25.33,5.06.16,5.63,1.56,1.22,2.93,6.06,1.64,4.83-1.33-2.16-5.21-6.91-3.47-11.08-5.8s-12.08-15.77-6.93-19.75c2.51-1.93,0-6.28-2.52-4.31Z"
              transform="translate(-14.81 -21.57)"/>
        <path class="cls-1"
              d="M256.68,363.64C240.56,358,224.17,352.9,207.13,351c-8.54-.93-16.87-.58-25.42,0-6.58.44-12.17,1.57-16.86,6.61-2.19,2.36,1.33,5.9,3.53,3.54,5.17-5.54,12.74-5.31,19.79-5.69a116.71,116.71,0,0,1,23.62,1.17c14.93,2.22,29.35,6.85,43.56,11.81,3,1.06,4.35-3.76,1.33-4.82Z"
              transform="translate(-14.81 -21.57)"/>
        <path class="cls-1"
              d="M162.64,363.18c3.71,9.25,7.43,18.56,12.41,27.22A91,91,0,0,0,182.94,402c3.49,4.32,7.92,8.09,10,13.35,1.17,3,6,1.67,4.82-1.32-3.53-8.9-11.67-15.18-16.69-23.25-5.63-9.07-9.66-19-13.62-28.89-1.18-3-6-1.66-4.82,1.33Z"
              transform="translate(-14.81 -21.57)"/>
        <path class="cls-1"
              d="M209.77,435.52c4.58,5.61,9.16,11.21,13.25,17.19,1.81,2.65,6.14.15,4.32-2.52-4.33-6.34-9.19-12.27-14-18.21-2-2.49-5.56,1.06-3.54,3.54Z"
              transform="translate(-14.81 -21.57)"/>
        <path class="cls-1"
              d="M193.2,415.91c5.17,6.84,10.77,13.3,16.57,19.61,2.18,2.37,5.71-1.17,3.54-3.54-5.51-6-10.88-12.1-15.79-18.59-1.91-2.54-6.26-.05-4.32,2.52Z"
              transform="translate(-14.81 -21.57)"/>
        <path class="cls-1"
              d="M244.52,440.11c10.3,8.19-8.26,20.7-14.09,26-2.39,2.17,1.16,5.7,3.53,3.54,8-7.25,28-22,14.09-33.07-2.49-2-6.05,1.53-3.53,3.53Z"
              transform="translate(-14.81 -21.57)"/>
        <path class="cls-1"
              d="M248.45,438.61q-12-19.17-24.87-37.79-6.35-9.17-12.86-18.23c-3.63-5.07-6.29-10.78-12.35-13-3-1.09-4.34,3.74-1.33,4.82,3.33,1.2,5.16,4.82,7.14,7.57s4,5.63,6,8.45q5.88,8.28,11.62,16.65,11.51,16.77,22.28,34c1.7,2.72,6,.21,4.32-2.53Z"
              transform="translate(-14.81 -21.57)"/>
        <path class="cls-1"
              d="M131.12,364.19l1-5.43-4.91-.66c-2.88,39.55,7.58,78.28,9.68,117.59.18,3.2,5.18,3.22,5,0-2.1-39.31-12.56-78-9.68-117.59.2-2.78-4.41-3.45-4.91-.67l-1,5.43c-.57,3.15,4.25,4.5,4.82,1.33Z"
              transform="translate(-14.81 -21.57)"/>
        <path class="cls-1"
              d="M177.85,387.72a4.44,4.44,0,0,0-6.38-.44c-2.87,2.41-2.53,7.82-2.59,11.14-.22,12.27,2.59,24.55,4.13,36.67a603.39,603.39,0,0,1,4.73,74.44c0,3.21,5,3.22,5,0q-.08-30.06-3.08-60Q178.25,435.7,176.2,422c-.79-5.35-1.66-10.68-2.07-16.08-.19-2.48-.3-5-.25-7.46,0-1.29,1.13-6.36.43-7.16,2.13,2.43,5.65-1.12,3.54-3.54Z"
              transform="translate(-14.81 -21.57)"/>
        <path class="cls-1"
              d="M177.3,510.86a9.67,9.67,0,0,1-3.55,5.77,2.58,2.58,0,0,0-.9,3.42,2.51,2.51,0,0,0,3.42.9,14.78,14.78,0,0,0,5.85-8.76c.71-3.13-4.11-4.47-4.82-1.33Z"
              transform="translate(-14.81 -21.57)"/>
        <path class="cls-1" d="M141.19,505.08l-1.37,56.46c-.08,3.22,4.92,3.22,5,0l1.37-56.46c.07-3.22-4.93-3.22-5,0Z"
              transform="translate(-14.81 -21.57)"/>
        <path class="cls-1"
              d="M176,506.55a180,180,0,0,1-1.76,53.39c-.58,3.15,4.24,4.5,4.82,1.33A184.61,184.61,0,0,0,181,506.55c-.37-3.16-5.37-3.19-5,0Z"
              transform="translate(-14.81 -21.57)"/>
        <path class="cls-1"
              d="M138.5,552.14A176.73,176.73,0,0,1,140.74,582c0,3.21,5,3.22,5,0a185.1,185.1,0,0,0-2.42-31.19c-.52-3.16-5.34-1.82-4.82,1.33Z"
              transform="translate(-14.81 -21.57)"/>
        <path class="cls-1"
              d="M209.73,343a102,102,0,0,0,6.46-40.51c-.13-3.21-5.13-3.23-5,0a98.43,98.43,0,0,1-6.28,39.18c-1.13,3,3.7,4.32,4.82,1.33Z"
              transform="translate(-14.81 -21.57)"/>
        <path class="cls-1"
              d="M294.06,222.94c17,2.67,26.17,16,31.72,31.24,5.68,15.56,3.69,32.61-10.79,42.5-2.64,1.8-.14,6.14,2.52,4.32,15.63-10.68,19.53-29.08,13.68-46.47s-16.53-33.38-35.8-36.41c-3.15-.5-4.51,4.32-1.33,4.82Z"
              transform="translate(-14.81 -21.57)"/>
        <path class="cls-1"
              d="M319.78,271.65c-7.82-3.47-17.16,7.11-17.66,14.46s8.07,14.2,14.15,7.89c2.23-2.32-1.3-5.86-3.54-3.53a3,3,0,0,1-4.4-.11c-1.7-1.66-1.42-4.38-.58-6.38,1-2.4,6.34-9.41,9.5-8,2.92,1.3,5.46-3,2.53-4.32Z"
              transform="translate(-14.81 -21.57)"/>
        <path class="cls-1"
              d="M217.37,304a30.44,30.44,0,0,1-4.14-19.42c.36-3.2-4.65-3.17-5,0a34.94,34.94,0,0,0,4.82,21.94c1.65,2.77,6,.25,4.32-2.52Z"
              transform="translate(-14.81 -21.57)"/>
        <path class="cls-1"
              d="M270.16,334.11c-4,3.06-10.92,4-15.84,3.31-7.64-1-4.73-9.47-5.38-15-1.36-11.66-6-23.28-9.27-34.51-.91-3.08-5.73-1.77-4.82,1.33,2.43,8.32,5,16.62,7.3,25a46.53,46.53,0,0,1,2,14.11c-.11,3-.63,5.93.76,8.75,4.64,9.46,22.34,5.56,28.78.58,2.54-2-1-5.49-3.54-3.54Z"
              transform="translate(-14.81 -21.57)"/>
        <path class="cls-1"
              d="M274.33,338.14a15.71,15.71,0,0,1,8.07-4.07c3.16-.61,1.82-5.43-1.33-4.82a20.27,20.27,0,0,0-10.27,5.36c-2.34,2.22,1.2,5.75,3.53,3.53Z"
              transform="translate(-14.81 -21.57)"/>
        <path class="cls-1"
              d="M263.52,319.24a28.43,28.43,0,0,1-8,7.29c-2.73,1.69-.22,6,2.52,4.32a34.85,34.85,0,0,0,9.77-9.09c1.9-2.6-2.43-5.09-4.32-2.52Z"
              transform="translate(-14.81 -21.57)"/>
        <path class="cls-1"
              d="M263.28,323.82l-2.43-10.9c-.7-3.14-5.52-1.81-4.82,1.33l2.43,10.9c.7,3.14,5.52,1.81,4.82-1.33Z"
              transform="translate(-14.81 -21.57)"/>
        <path class="cls-1"
              d="M256,368.52c5.94.12,12-.83,17.89-.07,3.18.4,3.15-4.6,0-5-5.92-.76-11.95.19-17.89.07-3.22-.06-3.22,4.94,0,5Z"
              transform="translate(-14.81 -21.57)"/>
        <path class="cls-1"
              d="M277.68,347.71c-2.08,5.62-7.08,9.51-12.67,11.3-3.05,1-1.75,5.8,1.33,4.82,7.38-2.36,13.44-7.45,16.16-14.8,1.12-3-3.71-4.32-4.82-1.32Z"
              transform="translate(-14.81 -21.57)"/>
        <path class="cls-1"
              d="M264.09,362.64c5,.69,10.34,1,15.31,2.12,4.47,1,6.64,3.27,8.75,7.16,2.84,5.23,4.84,10.76,10.18,14,2.77,1.66,5.28-2.66,2.52-4.31-5.93-3.56-7-11.47-11.25-16.56-5.61-6.76-16.2-6.09-24.18-7.19-3.15-.43-4.51,4.38-1.33,4.82Z"
              transform="translate(-14.81 -21.57)"/>
        <path class="cls-1"
              d="M297.34,384a18.71,18.71,0,0,1,9.42,10.61c1.14,3.16,2.33,6.65,6.28,6.64,3.22,0,3.22-5,0-5-.89,0-1.66-3.6-2-4.38a22.22,22.22,0,0,0-2.7-4.95,23.52,23.52,0,0,0-8.51-7.24c-2.86-1.46-5.39,2.85-2.52,4.32Z"
              transform="translate(-14.81 -21.57)"/>
        <path class="cls-1"
              d="M309.06,399.54l1.78,4.78c1.11,3,5.59,1.85,4.82-1.33-1.3-5.44,0-13,5.56-15.68,2.89-1.4.36-5.71-2.53-4.32-7.56,3.65-9.64,13.84-7.85,21.33l4.82-1.33-1.78-4.78c-1.11-3-5.95-1.7-4.82,1.33Z"
              transform="translate(-14.81 -21.57)"/>
        <path class="cls-1"
              d="M200.79,341.07a98.39,98.39,0,0,1,20.85,15.53c2.31,2.25,5.85-1.28,3.54-3.54a103.48,103.48,0,0,0-21.87-16.31c-2.81-1.57-5.34,2.75-2.52,4.32Z"
              transform="translate(-14.81 -21.57)"/>
        <path class="cls-1"
              d="M211.1,528.9q-2.07,1.17-4.19,2.24a2.5,2.5,0,0,0,2.52,4.32c1.42-.72,2.81-1.46,4.19-2.24a2.5,2.5,0,0,0-2.52-4.32Z"
              transform="translate(-14.81 -21.57)"/>
        <path class="cls-1"
              d="M266,405.08a111.33,111.33,0,0,1,25.53,31.26c2.65,4.85,7.82,12.17,3.37,17.25-4,4.62-10.31,8.05-15,12.09-20.58,17.81-36.8,40.39-58.71,56.67-2.55,1.89-.06,6.24,2.52,4.31,24.84-18.45,42.62-44.54,67.07-63.48,4.09-3.16,9.39-6,10.69-11.47s-2.09-11-4.45-15.62a114.65,114.65,0,0,0-27.51-34.54c-2.44-2.08-6,1.44-3.54,3.53Z"
              transform="translate(-14.81 -21.57)"/>
        <path class="cls-1"
              d="M204.79,503.91c-.22-1.35-.45-2.7-.7-4a2.51,2.51,0,0,0-3.07-1.75,2.57,2.57,0,0,0-1.75,3.08c.25,1.34.48,2.69.7,4A2.51,2.51,0,0,0,203,507a2.57,2.57,0,0,0,1.75-3.08Z"
              transform="translate(-14.81 -21.57)"/>
        <path class="cls-1"
              d="M199.28,501.55l-.4,3.19c-.29,2.3,2.84,3.09,4.26,1.77,14.83-13.79,29.16-29.28,46-40.65,2.65-1.8.15-6.13-2.52-4.32-17.2,11.63-31.84,27.34-47,41.44l4.27,1.76.4-3.19c.4-3.19-4.6-3.16-5,0Z"
              transform="translate(-14.81 -21.57)"/>
        <path class="cls-1"
              d="M249.63,465.47c3.33-4.08,6.67-8.15,10-12.24,2.21-2.73,4.07-5.79,2.89-9.39-1-3-5.82-1.74-4.82,1.33s-3.46,6.8-5.23,9l-6.36,7.79c-2,2.47,1.5,6,3.54,3.54Z"
              transform="translate(-14.81 -21.57)"/>
        <path class="cls-1"
              d="M262.1,443.25c-6-9.78-14.4-17.38-25.15-21.46-3-1.14-4.31,3.69-1.33,4.82,9.49,3.61,16.93,10.57,22.17,19.16,1.67,2.74,6,.23,4.31-2.52Z"
              transform="translate(-14.81 -21.57)"/>
        <path class="cls-1"
              d="M230.93,465.72c-6.45,3.2-12.89,6.43-19.35,9.62-3.18,1.56-11.92,4.63-8.68-3.3a27.65,27.65,0,0,1,6.54-8.82c4.87-4.55,11.83-7.28,17.65-10.36L247.55,442c2.85-1.5.32-5.82-2.52-4.31-9.91,5.24-19.84,10.43-29.71,15.72-7.83,4.19-14.56,10.15-18.06,18.56-2.59,6.23,2.76,11.26,9,10.58,4.24-.45,8.37-3.17,12.09-5L233.46,470c2.88-1.43.35-5.75-2.53-4.32Z"
              transform="translate(-14.81 -21.57)"/>
        <path class="cls-1" d="M298.44,403.85l-9.84,26c-1.14,3,3.69,4.31,4.82,1.33l9.84-26c1.14-3-3.69-4.32-4.82-1.33Z"
              transform="translate(-14.81 -21.57)"/>
        <path class="cls-1"
              d="M252.67,495.35q-10.81,20.76-23.07,40.71-5.9,9.56-12.12,18.91c-3.85,5.77-8,14.68-15.46,16.06-3.16.58-1.82,5.4,1.33,4.82,6.08-1.12,9.82-5.8,13.2-10.61,5-7.15,9.75-14.5,14.4-21.89q14-22.2,26-45.48c1.49-2.85-2.83-5.38-4.31-2.52Z"
              transform="translate(-14.81 -21.57)"/>
        <path class="cls-1"
              d="M208.38,566.14c-2.65-3.82-6.46-5-10.92-5.67-7.56-1.11-15.21-1.78-22.8-2.66-3.19-.37-3.16,4.63,0,5l15.65,1.82c4.17.48,11,.11,13.75,4,1.82,2.62,6.16.12,4.32-2.53Z"
              transform="translate(-14.81 -21.57)"/>
        <path class="cls-1"
              d="M178.23,578a77.1,77.1,0,0,0,18.46-.84,87.69,87.69,0,0,0,10.48-2.49c2-.62,4.85-1.06,6.44-2.54,2.79-2.58,1.19-6.56-.55-9.24A13,13,0,0,0,202.71,557c-3.21-.25-3.19,4.75,0,5,2.7.2,8.84,3.63,6.6,6.72-1.07,1.48-7.91,2.36-9.57,2.74A72.33,72.33,0,0,1,178.23,573c-3.21-.24-3.2,4.76,0,5Z"
              transform="translate(-14.81 -21.57)"/>
        <path class="cls-1"
              d="M175.43,558.52c-10.21-.36-19.5,4.5-23.13,14.34a2.42,2.42,0,0,0,.65,2.43c4.92,4.22,9.72,1.88,15.54,2.74,3.15.47,4.5-4.35,1.33-4.82-4-.6-10.09,1.32-13.34-1.45l.64,2.43c2.86-7.74,10.5-11,18.31-10.67,3.22.11,3.21-4.89,0-5Z"
              transform="translate(-14.81 -21.57)"/>
        <path class="cls-1"
              d="M198.46,541.15c2.4-3.13,5-6.12,7.64-9,2.19-2.35-1.34-5.9-3.53-3.53-3,3.2-5.76,6.55-8.42,10A2.52,2.52,0,0,0,195,542a2.56,2.56,0,0,0,3.42-.89Z"
              transform="translate(-14.81 -21.57)"/>
        <path class="cls-1"
              d="M187.55,558.15c.65-1.23,1.33-2.44,2-3.64a2.5,2.5,0,0,0-4.32-2.53c-.69,1.21-1.36,2.42-2,3.64a2.5,2.5,0,1,0,4.32,2.53Z"
              transform="translate(-14.81 -21.57)"/>
        <path class="cls-1"
              d="M201.21,508.52l-.3-2.8a2.5,2.5,0,0,0-5,0c-1.22,10.27.08,20.5.5,30.77.4,9.73,2.5,19.26,1.8,29l2.5-2.5c-10.41.5-14.85-10.59-14.47-19.29a65.55,65.55,0,0,1,3-16.6c.88-2.82,1.91-5.6,3-8.33,1.49-3.68,2.34-5.65,6.53-6,3.18-.25,3.21-5.25,0-5-2.43.19-6,0-7.85,1.93-2,2.08-3.1,6.62-4.16,9.37a78.71,78.71,0,0,0-5.56,25.5c-.48,11.15,7,24,19.48,23.39a2.55,2.55,0,0,0,2.5-2.5c.7-9.77-1.4-19.3-1.8-29-.42-10.27-1.72-20.5-.5-30.77h-5l.3,2.8c.35,3.17,5.35,3.2,5,0Z"
              transform="translate(-14.81 -21.57)"/>
        <path class="cls-1"
              d="M136.54,468.18a130.57,130.57,0,0,0,.05,27.88c.44,3.92,1,7.83,1.82,11.69.64,3.19,3.9,10.39,1.61,13.24-2,2.49,1.52,6,3.54,3.54,4.92-6.13-.05-15.88-1.17-22.68a127.84,127.84,0,0,1-.85-33.67c.33-3.2-4.67-3.17-5,0Z"
              transform="translate(-14.81 -21.57)"/>
        <path class="cls-1"
              d="M147.44,583.2c-.32-1.06-2.08-3.37-1.57-4.41L143.71,580c12,.11,24,1.87,36,1.24,3.2-.17,3.22-5.17,0-5-12,.63-24-1.13-36-1.24a2.5,2.5,0,0,0-2.16,1.24c-1.82,3.73,0,4.8,1.06,8.27.92,3.08,5.74,1.77,4.83-1.33Z"
              transform="translate(-14.81 -21.57)"/>
        <path class="cls-1"
              d="M166.7,579c12.17,0,28.75-1.28,34.85,11.8l.4-3c-5.73,5.09-14.47,2.43-21.38,2.41-3.22,0-3.22,5,0,5,8.76,0,17.72,2.52,24.91-3.88a2.55,2.55,0,0,0,.39-3c-7-14.91-25.15-14.26-39.17-14.27-3.21,0-3.22,5,0,5Z"
              transform="translate(-14.81 -21.57)"/>
        <path class="cls-1"
              d="M143.15,580.53c-3.33,3.28-7.5,8.29-7.05,13.31.51,5.67,6.33,7,11.1,6.94,7.67-.16,15.59-1.57,23.21-2.43,9.34-1.06,18.66-2.38,27.94-3.9,3.16-.53,1.82-5.34-1.33-4.83-13.23,2.18-26.5,3.72-39.84,5-4.15.42-8.65,1.7-12.81,1-6.94-1.17-.29-9,2.31-11.6,2.3-2.26-1.24-5.79-3.53-3.53Z"
              transform="translate(-14.81 -21.57)"/>
        <path class="cls-1"
              d="M192.24,594.44a21.47,21.47,0,0,0,11.1.74c3.16-.57,1.82-5.39-1.33-4.82a16.37,16.37,0,0,1-8.44-.74c-3-1.07-4.36,3.76-1.33,4.82Z"
              transform="translate(-14.81 -21.57)"/>
        <path class="cls-1"
              d="M199.27,538.63a114.9,114.9,0,0,0,25.36-13.42c2.61-1.84.12-6.18-2.52-4.32a109.32,109.32,0,0,1-24.17,12.92c-3,1.14-1.69,6,1.33,4.82Z"
              transform="translate(-14.81 -21.57)"/>
    </g>
</svg>