<?xml version="1.0" encoding="UTF-8" standalone="no"?>
<svg
   xmlns:dc="http://purl.org/dc/elements/1.1/"
   xmlns:cc="http://creativecommons.org/ns#"
   xmlns:rdf="http://www.w3.org/1999/02/22-rdf-syntax-ns#"
   xmlns:svg="http://www.w3.org/2000/svg"
   xmlns="http://www.w3.org/2000/svg"
   xmlns:sodipodi="http://sodipodi.sourceforge.net/DTD/sodipodi-0.dtd"
   xmlns:inkscape="http://www.inkscape.org/namespaces/inkscape"
   viewBox="0 0 109 24"
   version="1.1"
   id="svg33"
   sodipodi:docname="logo.svg"
   inkscape:version="0.92.3 (2405546, 2018-03-11)">
  <metadata
     id="metadata37">
    <rdf:RDF>
      <cc:Work
         rdf:about="">
        <dc:format>image/svg+xml</dc:format>
        <dc:type
           rdf:resource="http://purl.org/dc/dcmitype/StillImage" />
        <dc:title>Logo</dc:title>
      </cc:Work>
    </rdf:RDF>
  </metadata>
  <sodipodi:namedview
     pagecolor="#ffffff"
     bordercolor="#666666"
     borderopacity="1"
     objecttolerance="10"
     gridtolerance="10"
     guidetolerance="10"
     inkscape:pageopacity="0"
     inkscape:pageshadow="2"
     inkscape:window-width="1920"
     inkscape:window-height="1013"
     id="namedview35"
     showgrid="false"
     inkscape:zoom="7.2407734"
     inkscape:cx="34.443959"
     inkscape:cy="-3.4163302"
     inkscape:window-x="-9"
     inkscape:window-y="-9"
     inkscape:window-maximized="1"
     inkscape:current-layer="svg33" />
  <title
     id="title10">Logo</title>
  <defs
     id="defs31">
    <path
       id="b"
       d="M22.735 23.171c.283.323.053.829-.376.829h-5.907c-.285 0-.556-.121-.745-.333l-9.414-10.526v10.36c0 .276-.224.5-.5.5h-5.293c-.276 0-.5-.224-.5-.5v-23c0-.276.224-.5.5-.5h5.293c.276 0 .5.224.5.5v9.815l9.141-9.99c.19-.207.457-.325.738-.325h5.762c.437 0 .664.521.366.841l-9.851 10.563 10.287 11.767z" />
    <path
       id="c"
       d="M45.991 24c-.199 0-.38-.118-.459-.301l-2.024-4.669h-10.67l-2.024 4.669c-.079.183-.259.301-.459.301h-5.212c-.366 0-.608-.381-.453-.712l10.782-23c.082-.176.259-.288.453-.288h4.358c.194 0 .37.112.453.287l10.815 23c.156.332-.086.713-.452.713h-5.108zm-11.135-9.668h6.635l-3.317-7.694-3.317 7.694z" />
    <path
       id="d"
       d="M55.525 24c-.276 0-.5-.224-.5-.5v-23c0-.276.224-.5.5-.5h5.293c.276 0 .5.224.5.5v18.428h9.759c.276 0 .5.224.5.5v4.072c0 .276-.224.5-.5.5h-15.552z" />
    <path
       id="e"
       d="M75.279.5c0-.276.224-.5.5-.5h9.315c2.667 0 4.959.477 6.874 1.43 1.938.953 3.42 2.338 4.446 4.153 1.026 1.793 1.539 3.926 1.539 6.4 0 2.496-.513 4.652-1.539 6.468-1.003 1.793-2.474 3.166-4.412 4.119-1.915.953-4.218 1.43-6.908 1.43h-9.315c-.276 0-.5-.224-.5-.5v-23zm9.37 18.462c2.371 0 4.138-.579 5.301-1.736 1.163-1.157 1.744-2.905 1.744-5.242 0-2.338-.581-4.074-1.744-5.209-1.163-1.157-2.93-1.736-5.301-1.736h-3.078v13.923h3.078z" />
    <path
       id="f"
       d="M102.913 24c-.276 0-.5-.224-.5-.5v-23c0-.276.224-.5.5-.5h5.293c.276 0 .5.224.5.5v23c0 .276-.224.5-.5.5h-5.293z" />
  </defs>
  <path
     id="path95"
     d="m 1.8999903,20.530994 c 0.6050189,-0.348723 1.7103004,-0.882701 -1.05644244,0.607883 -0.0940311,0.05066 0.17532914,-0.12206 0.26177024,-0.184799 0.272571,-0.197831 0.258445,-0.192211 0.5188483,-0.403756 0.5630241,-0.479296 1.0677004,-1.019779 1.5542846,-1.57491 0.6587644,-0.750873 1.2544148,-1.5539 1.865053,-2.34359 C 5.942526,15.501425 6.7767476,14.322458 7.5666235,13.113848 8.1988531,12.104249 8.779838,11.06328 9.2799688,9.9821076 9.7050444,9.0183529 10.105294,8.0438288 10.515565,7.0736161 10.784416,6.4593877 10.979708,5.8137475 11.257626,5.2035704 11.886831,4.9602097 12.493378,4.6472659 13.14524,4.4734883 c 0.07217,-0.019238 0.01331,0.1490812 0.01171,0.2237489 -0.0097,0.451687 -0.144724,0.9001968 -0.254079,1.3346236 -0.22807,0.9919907 -0.448194,1.9858206 -0.672652,2.9786519 -0.248195,1.0694503 -0.483763,2.1419013 -0.665628,3.2248053 -0.04724,0.444151 -0.164995,0.902791 -0.09273,1.352077 0.03005,0.186827 0.0719,0.243636 0.151905,0.40881 0.353098,0.453737 0.92675,0.381545 1.431984,0.297477 0.20986,-0.106384 0.827803,-0.445905 0.629581,-0.319151 -0.291716,0.186539 -0.618232,0.683978 -0.91101,0.499112 -0.27733,-0.175112 0.541732,-0.370232 0.80472,-0.566225 0.772999,-0.576079 1.460218,-1.21413 2.138165,-1.896482 1.053103,-1.158528 1.794442,-2.5354349 2.404821,-3.9653755 0.0542,-0.1435963 0.109374,-0.2868254 0.162587,-0.4307889 0.03711,-0.1003903 0.07139,-0.2018078 0.108362,-0.3022481 0.02131,-0.057898 0.045,-0.1149008 0.06648,-0.1727364 0.0097,-0.026232 0.0015,-0.068382 0.02717,-0.079426 1.972632,-0.8473676 1.929895,-1.3960413 1.850235,-0.4432556 -0.207831,1.0968796 -0.562836,2.1590708 -0.922574,3.2136327 -0.455961,1.3252248 -0.904658,2.6526308 -1.332745,3.9871588 -0.375613,1.165447 -0.576615,2.368154 -0.686601,3.584226 -0.01013,0.72913 -0.01626,1.543303 0.479834,2.135435 0.0731,0.08724 0.164156,0.157706 0.246234,0.236559 0.518081,0.352214 1.160169,0.460628 1.75849,0.238453 0.175457,-0.06515 0.337082,-0.162774 0.505624,-0.24416 -0.381517,0.210672 -0.733632,0.486813 -1.144549,0.632017 -0.229306,0.08103 0.396678,-0.281998 0.586007,-0.434647 0.826548,-0.666419 1.403368,-1.388872 2.009013,-2.250209 0.603786,-0.89582 1.086514,-1.861954 1.50194,-2.856677 0.316905,-0.790026 -0.558229,-0.154282 1.893648,-0.920743 0.06891,-0.02154 -0.06393,0.129475 -0.09525,0.194522 -0.169086,0.351109 -0.12472,0.259933 -0.296865,0.649614 -0.367422,0.80773 -0.54533,1.677922 -0.660438,2.552492 -0.01124,0.394977 -0.11971,0.854795 0.240425,1.119663 0.123684,0.04428 0.15852,0.07141 0.298405,0.05629 0.40001,-0.04323 0.857816,-0.306067 1.207801,-0.482449 -0.429651,0.245029 -0.852681,0.502052 -1.288955,0.735086 -0.162317,0.0867 0.312237,-0.194898 0.466239,-0.295634 0.158857,-0.103912 0.31732,-0.208564 0.472248,-0.318249 0.449267,-0.318069 0.875577,-0.667068 1.301538,-1.01512 0.693386,-0.543896 1.287918,-1.181753 1.759277,-1.924599 0.309258,-0.5808 0.525322,-1.204352 0.713548,-1.833 0.0088,-0.03472 -0.0084,-0.09564 0.02635,-0.104172 0.03106,-0.0076 0.02413,0.05922 0.0362,0.08884 0.590426,-0.287695 1.157282,-0.62989 1.771279,-0.863085 0.07666,-0.02912 -0.065,0.150597 -0.09561,0.226671 -0.08214,0.204109 -0.206719,0.538147 -0.280146,0.732642 -0.404137,1.039308 -0.658924,2.125637 -0.852802,3.221177 -0.02929,0.40692 -0.263653,1.263275 -0.05532,1.644283 0.02357,0.0431 0.06581,0.07294 0.09871,0.109402 0.473618,0.243984 1.00289,0.04679 1.465506,-0.126179 0.127297,-0.05555 0.257273,-0.105328 0.38189,-0.166656 0.137606,-0.06772 0.53685,-0.2968 0.404029,-0.22012 -0.423966,0.244763 -0.841781,0.501337 -1.277545,0.724417 -0.162212,0.08304 0.30695,-0.196829 0.454868,-0.303265 0.422987,-0.304363 0.515167,-0.404585 0.908815,-0.753975 1.135404,-1.094157 1.93772,-2.459295 2.672563,-3.839241 0.744015,-1.475561 1.216409,-3.057275 1.625789,-4.651324 0.129829,-0.5160599 0.233927,-1.0379487 0.318831,-1.5631265 0.01662,-0.1027733 0.03087,-0.2059138 0.04628,-0.3088755 0.008,-0.053743 -0.02528,-0.1384712 0.02406,-0.1612396 0.587114,-0.2709212 1.209405,-0.4579822 1.814107,-0.6869732 -0.237343,1.4709758 -0.564271,2.9255427 -0.921564,4.3714418 -0.435619,1.726243 -0.980392,3.421736 -1.487577,5.127588 -0.257195,0.918074 -0.564939,1.820538 -0.839372,2.733343 -0.01575,0.04801 -0.0023,0.121015 -0.04725,0.144035 -0.609225,0.311791 -1.217249,0.64602 -1.873814,0.839133 -0.09114,0.02681 -0.01856,-0.190089 -0.01093,-0.284779 0.03776,-0.46892 0.237538,-0.912507 0.4067,-1.343483 0.477386,-1.208576 1.174631,-2.297794 1.989005,-3.303176 0.517396,-0.595299 1.124905,-1.102139 1.806695,-1.498975 2.046576,-1.191209 1.414753,-0.89313 2.492269,-1.37759 0.301977,-0.105392 0.909454,-0.191047 0.720579,0.359141 -0.0253,0.0737 -0.07627,0.135901 -0.114404,0.203852 -0.421324,0.502851 -0.93326,0.918616 -1.413643,1.362358 -0.56497,0.478392 -0.951061,1.082328 -1.272634,1.73963 -0.345393,0.721319 -0.515688,1.504263 -0.568213,2.298311 0.03762,0.238108 0.09758,0.619016 0.361178,0.736221 0.446938,0.198728 1.230031,-0.147129 1.598631,-0.276012 0.938328,-0.365085 1.849378,-0.795687 2.737096,-1.269952 0.249742,-0.133425 0.990651,-0.548962 0.742023,-0.413473 -1.186361,0.646502 -1.447645,0.857945 -0.606954,0.262269 0.118654,-0.09876 0.241269,-0.192946 0.355962,-0.29628 0.08326,-0.07501 0.160283,-0.156761 0.23727,-0.238203 0.04555,-0.04819 0.08753,-0.09965 0.130137,-0.150466 0.01537,-0.01833 0.02155,-0.04798 0.04375,-0.0569 1.911614,-0.768486 2.103235,-1.25919 1.706852,-0.481715 -0.323689,0.694981 -0.436346,1.453359 -0.523489,2.207516 -0.02146,0.492474 0.02838,1.101044 0.534508,1.347984 0.08964,0.04373 0.190243,0.05997 0.285364,0.08996 0.91745,0.06921 1.763026,-0.352592 2.537672,-0.795516 -0.427894,0.234397 -0.836421,0.508275 -1.283683,0.703189 -0.156406,0.06816 0.272707,-0.205643 0.400741,-0.318408 0.530433,-0.467177 0.928657,-1.018712 1.295751,-1.616866 0.343261,-0.59842 0.583228,-1.248693 0.786552,-1.905941 0.273998,0.651645 -0.042,-0.0626 1.816278,-0.792842 0.05784,-0.02273 -0.06505,0.10614 -0.09233,0.16198 -0.08284,0.169548 -0.173773,0.411056 -0.237639,0.582894 -0.04545,0.122286 -0.08853,0.245437 -0.132799,0.368155 -0.227777,0.666436 -0.346568,1.406792 -0.139122,2.096548 0.03224,0.107183 0.08436,0.207346 0.126541,0.311019 0.479833,0.759058 1.036524,0.608765 1.815276,0.426452 0.183523,-0.06353 0.370546,-0.117738 0.55057,-0.190596 0.203013,-0.08216 0.402382,-0.173874 0.597202,-0.273925 0.220131,-0.11305 0.870812,-0.469475 0.646566,-0.364823 -0.340299,0.158813 -0.620639,0.551541 -0.99541,0.527623 -0.297393,-0.01898 0.480815,-0.353025 0.707916,-0.545971 0.241682,-0.205336 0.464637,-0.431746 0.696955,-0.647619 1.476044,-1.453263 2.404893,-3.295263 3.207621,-5.176377 0.214701,-0.517732 0.403623,-1.04554 0.610143,-1.566459 0.05341,-0.134726 0.03659,-0.3373829 0.1665,-0.4016375 0.551139,-0.2726097 1.145495,-0.5618123 1.760281,-0.5514043 0.203169,0.00344 -0.126568,0.3862165 -0.193938,0.5779216 -0.08963,0.2550402 -0.184676,0.5081422 -0.277015,0.7622142 -0.733175,1.890498 -1.240787,3.794039 -1.588556,5.788709 -0.100661,0.9825 -0.23644,2.349112 0.294597,3.249733 0.06409,0.108698 0.159522,0.195564 0.239282,0.293345 0.08678,0.06098 0.173563,0.121962 0.260345,0.182943 0,0 -1.713167,1.081014 -1.713167,1.081014 v 0 c -0.09326,-0.07706 -0.186512,-0.154126 -0.279768,-0.231189 -0.08625,-0.114826 -0.189142,-0.218867 -0.25876,-0.344476 -0.529802,-0.955892 -0.39725,-2.346219 -0.289002,-3.379302 0.149621,-0.850848 0.177008,-1.079159 0.380101,-1.931475 0.313491,-1.315621 0.731104,-2.601314 1.175963,-3.877458 0.08457,-0.248503 0.172111,-0.496013 0.253702,-0.745509 0.05912,-0.180775 0.02188,-0.423881 0.16838,-0.545178 0.571673,-0.4733322 1.219699,-0.8625037 1.89736,-1.1652081 0.139391,-0.062265 -0.142476,0.2702645 -0.205325,0.4093932 -0.222024,0.4914936 -0.448357,1.0914949 -0.641659,1.5845799 -0.79655,1.895404 -1.717483,3.757847 -3.169659,5.246871 -0.397486,0.384762 -0.902869,0.913678 -1.375168,1.219642 -0.77221,0.500251 -1.572259,0.956297 -2.365588,1.422331 -0.583937,0.343029 -1.198614,0.631913 -1.856109,0.802276 -0.926578,0.169365 -1.454943,0.218029 -1.986299,-0.648905 -0.04627,-0.114767 -0.102889,-0.225888 -0.138822,-0.344301 -0.216547,-0.713611 -0.129701,-1.496372 0.08917,-2.195585 0.10995,-0.320523 0.21742,-0.642423 0.336514,-0.959726 0.02249,-0.05992 0.01581,-0.145788 0.07085,-0.178449 1.885475,-1.118911 1.659835,-1.65764 1.930262,-0.903273 -0.286143,0.647173 -0.447821,1.350064 -0.818978,1.960684 -1.049514,1.800043 -1.826226,2.203264 -3.801159,3.300269 -0.818731,0.434188 -1.712799,0.851185 -2.661577,0.670793 -0.107093,-0.04612 -0.221377,-0.07822 -0.32128,-0.138351 -0.536625,-0.322968 -0.640565,-0.963654 -0.622874,-1.536795 0.08571,-0.766034 0.186346,-1.536433 0.472798,-2.25791 0.385206,-0.867602 0.04745,-0.227904 2.046816,-1.169694 0.02682,-0.01263 -0.0392,0.04448 -0.05844,0.06704 -0.04779,0.05605 -0.0934,0.113987 -0.142618,0.168789 -0.295845,0.329416 -0.234458,0.253719 -0.609969,0.580269 -1.157636,0.848422 -0.485664,0.380862 -2.769703,1.699483 -1.118153,0.645531 -2.299371,1.1815 -3.499758,1.653258 -0.284072,0.08732 -0.560623,0.204564 -0.852216,0.261971 -0.171614,0.03379 -0.351357,0.03284 -0.524645,0.0091 -0.591305,-0.08103 -0.752149,-0.504263 -0.846877,-1.022463 0.04588,-0.813738 0.205426,-1.622733 0.53982,-2.370025 0.308589,-0.675043 0.666141,-1.314383 1.237081,-1.806594 0.464437,-0.445372 0.961139,-0.855859 1.415675,-1.312136 0.04168,-0.05271 0.08089,-0.10747 0.125033,-0.15814 0.02436,-0.02796 0.05085,-0.0544 0.08004,-0.07727 0.0069,-0.0054 0.03434,-0.004 0.02572,-0.0056 -0.185713,-0.03564 -0.377514,0.0613 -0.546126,0.114921 -0.78375,0.375107 -0.539442,0.27059 0.95167,-0.600623 0.15557,-0.09089 -0.311926,0.180706 -0.463341,0.278366 -0.509798,0.32881 -0.975022,0.712301 -1.380448,1.165339 -0.823074,0.979463 -1.531773,2.045482 -2.004061,3.24155 -0.147115,0.369973 -0.236931,0.559097 -0.335288,0.933362 -0.0282,0.107304 -0.04639,0.217082 -0.06424,0.326584 -0.01028,0.0631 0.0327,0.154667 -0.02008,0.190734 -0.566137,0.38684 -1.169945,0.717292 -1.776573,1.036914 -0.04488,0.02365 0.04498,-0.09094 0.06746,-0.136413 0.315813,-0.913947 0.621998,-1.831807 0.900627,-2.757838 0.521085,-1.705732 1.084073,-3.399853 1.518027,-5.130858 0.346784,-1.42004 0.670867,-2.8503457 0.841564,-4.3039 0.620612,-0.3703141 1.221339,-0.7761949 1.861836,-1.1109424 0.04983,-0.026043 -0.03408,0.1073058 -0.04645,0.1621536 -0.143115,0.634618 -0.218063,1.2848913 -0.405247,1.9100702 -0.424281,1.6073132 -0.893597,3.2063896 -1.631314,4.7035186 -0.720646,1.387476 -1.501984,2.763718 -2.607831,3.886318 -0.373259,0.34686 -0.488443,0.471922 -0.891123,0.776599 -1.044367,0.790193 -2.211565,1.433375 -3.418643,1.937373 -0.541225,0.169236 -1.141385,0.324441 -1.626246,-0.06426 -0.04412,-0.05855 -0.09872,-0.110516 -0.132352,-0.17566 -0.244731,-0.474044 0.008,-1.256949 0.04766,-1.752924 0.197432,-1.100367 0.441615,-2.195108 0.826237,-3.247155 0.01643,-0.04655 0.297343,-0.920436 0.334735,-0.945566 0.595097,-0.399929 1.219493,-0.75759 1.857928,-1.08391 0.03549,-0.01814 0.05021,0.06692 0.05421,0.106572 0.0042,0.0418 -0.02076,0.08141 -0.03114,0.122115 -0.226984,0.633326 -0.414404,1.283084 -0.718401,1.886815 -0.459749,0.778943 -1.037452,1.430695 -1.749121,1.993089 -0.426002,0.352018 -0.852292,0.708426 -1.299401,1.033725 -0.970505,0.706104 -2.034161,1.279309 -3.07862,1.861866 -0.514323,0.240605 -1.128413,0.599984 -1.67412,0.257025 -0.414064,-0.391506 -0.338916,-0.778373 -0.31364,-1.31144 0.121493,-0.886401 0.289169,-1.77438 0.639726,-2.602451 0.01489,-0.03667 0.323215,-0.819932 0.353161,-0.836692 3.298947,-1.846294 2.153784,-1.452216 1.825735,-0.776118 -0.466302,0.996533 -0.920258,2.001879 -1.541756,2.915961 -0.338319,0.494398 -0.508771,0.770542 -0.898419,1.229945 -1.077739,1.270674 -2.430579,2.092553 -3.92197,2.847452 -0.182551,0.07339 -0.358781,0.16505 -0.547653,0.220173 -0.659046,0.192345 -1.345022,0.0094 -1.878212,-0.395379 -0.08778,-0.0909 -0.184776,-0.173728 -0.263331,-0.27271 -0.510767,-0.643579 -0.535263,-1.482134 -0.52131,-2.266981 0.102083,-1.231211 0.303487,-2.448698 0.678031,-3.629347 0.426622,-1.337404 0.883418,-2.664365 1.336424,-3.992949 0.350701,-1.0319282 0.680877,-2.0731907 0.88999,-3.1445916 0.09115,-0.9539922 -0.05229,-0.192248 1.875103,-1.2554237 0.02137,-0.011787 -0.05466,0.00151 -0.07037,0.020182 -0.04101,0.048759 -0.0629,0.1110358 -0.0889,0.1691985 -0.04555,0.1018793 -0.08455,0.2065672 -0.125505,0.3103777 -0.05832,0.1478211 -0.114874,0.296332 -0.172312,0.444498 -0.630961,1.4479197 -1.372089,2.8530171 -2.417582,4.0505141 -0.214263,0.219985 -0.421536,0.447001 -0.642789,0.659954 -1.565205,1.506488 -3.436272,2.735215 -5.434052,3.577683 -0.649272,0.06961 -1.173631,0.07089 -1.5905287,-0.498063 C 9.7590702,14.817 9.7042722,14.734119 9.6663664,14.52428 c -0.084322,-0.466791 0.039453,-0.945902 0.092614,-1.407246 0.1901261,-1.087224 0.4309846,-2.164303 0.6746346,-3.2405495 0.220847,-0.9901372 0.437066,-1.98128 0.64951,-2.9732516 0.08558,-0.3400159 0.175235,-0.6809676 0.227959,-1.0281669 0.01232,-0.081143 0.02219,-0.1627838 0.02738,-0.2446928 0.0039,-0.062078 -0.05177,-0.1520532 -5.1e-5,-0.1866077 0.580123,-0.38757 1.214526,-0.6869767 1.821789,-1.030465 -0.02629,0.011199 -0.06017,0.011984 -0.07886,0.033596 -0.07192,0.083172 -0.191217,0.3924222 -0.217001,0.4555258 -0.181743,0.4447894 -0.359395,0.8913524 -0.537357,1.3376706 -0.409528,0.9700564 -0.801078,1.9476508 -1.226294,2.9109576 -0.50013,1.0976085 -1.090415,2.1493385 -1.730655,3.1715025 -0.7832609,1.205256 -1.6073201,2.384908 -2.4887005,3.52078 -0.6107898,0.785501 -1.1975554,1.591176 -1.8456046,2.346745 -0.4787245,0.563454 -0.9789918,1.10856 -1.531928,1.600802 -0.9601753,0.832059 -2.0819492,1.434614 -3.20597558,2.021695 0,0 1.60216628,-1.281581 1.60216628,-1.281581 z"
     inkscape:connector-curvature="0" />
  <path
     id="path99"
     d="m 68.643974,19.454443 c 0.950896,-0.659528 1.980903,-1.193068 3.002472,-1.732249 0.05895,-0.03541 0.117072,-0.07224 0.176854,-0.106234 0.208444,-0.118519 0.131156,-0.06424 0.344036,-0.18025 0.05799,-0.0316 0.228928,-0.131793 0.171576,-0.09905 -1.618095,0.923668 -2.054392,1.235272 -1.373068,0.761489 0.635409,-0.485968 1.194135,-1.062808 1.728068,-1.655748 0.767723,-0.902399 1.457226,-1.867801 2.148694,-2.828867 0.625197,-0.87192 1.219365,-1.763631 1.748135,-2.697279 0.377066,-0.655357 0.69476,-1.3388454 0.984795,-2.0360269 0.187739,-0.4697712 0.357765,-0.9468569 0.505436,-1.4307492 0.09223,-0.2725737 0.180371,-0.5456923 0.235213,-0.8284771 1.907135,-0.842889 1.81579,-1.4960414 1.866742,-0.6556246 0,0 -1.821848,0.9413138 -1.821848,0.9413138 v 0 c -0.044,-0.8422763 -0.04984,-0.1214566 1.81881,-1.1698146 -0.107578,0.2696436 -0.117906,0.5754847 -0.251937,0.8381467 -0.144702,0.4937383 -0.32416,0.9769989 -0.51019,1.4564128 -0.295315,0.7073169 -0.608211,1.4050007 -0.99651,2.0676981 -0.529673,0.941312 -1.117015,1.845048 -1.749156,2.721169 -0.688399,0.966738 -1.388051,1.927551 -2.139647,2.84643 -0.513456,0.601265 -1.061953,1.171974 -1.669417,1.67987 -0.865029,0.660982 -1.862963,1.121821 -2.80946,1.653764 -0.115105,0.05881 -0.2846,0.144689 -0.397321,0.20532 -0.07385,0.03972 -0.292506,0.164128 -0.220208,0.121643 2.785828,-1.63703 1.681882,-1.036106 1.119736,-0.614444 0,0 -1.911805,0.741561 -1.911805,0.741561 z"
     inkscape:connector-curvature="0" />
  <path
     id="path101"
     d="m 76.12143,13.090522 c 0.444762,0.07571 0.890389,0.153154 1.338215,0.209679 0.143242,0.01808 0.286082,0.04616 0.430447,0.04819 0.182599,0.0026 0.364512,-0.02295 0.546768,-0.03443 0.640301,-0.101091 1.297064,-0.21401 1.904494,-0.451251 0.278363,-0.10872 0.547334,-0.240612 0.815196,-0.373112 0.299568,-0.148185 0.553821,-0.435619 0.886405,-0.468601 0.308809,-0.03063 -0.539246,0.307274 -0.808869,0.460911 1.208221,-0.702423 2.349729,-1.504826 3.402458,-2.422859 0.623851,-0.5430025 1.072157,-1.2122105 1.454055,-1.9360693 0.120438,-0.2294997 0.20834,-0.4730174 0.292733,-0.7172958 0.01456,-0.04214 0.02927,-0.084231 0.04319,-0.1265855 0.0042,-0.012686 -0.0013,-0.033379 0.01107,-0.0385 0.605059,-0.2512471 1.21797,-0.4831533 1.826955,-0.7247299 -0.19464,0.8510134 -0.608544,1.6315355 -0.998677,2.4054489 -0.563668,1.0898626 -1.15783,2.1632796 -1.645699,3.2905866 -0.411371,0.950543 -0.522948,1.303462 -0.87039,2.263867 -0.272846,0.84095 -0.551562,1.685532 -0.706371,2.55833 -0.06258,0.352824 -0.106194,0.708342 -0.07667,1.067257 0.0107,0.130115 0.04724,0.256799 0.07087,0.385198 0.164926,0.493506 0.432159,0.734039 0.896736,0.930262 0,0 -1.700285,1.124782 -1.700285,1.124782 v 0 c -0.500606,-0.256993 -0.798207,-0.557649 -0.976009,-1.107256 -0.0258,-0.140954 -0.06558,-0.280053 -0.07739,-0.422861 -0.100494,-1.216037 0.506128,-2.587037 0.83597,-3.727309 0.410404,-1.128081 0.820568,-2.261925 1.322045,-3.353879 0.07486,-0.163012 0.687514,-1.339359 0.774481,-1.508423 0.117016,-0.227481 0.232654,-0.4556681 0.348982,-0.6835019 0.364544,-0.7526122 0.766728,-1.5069785 0.959207,-2.3262006 2.41608,-1.3387046 2.127543,-1.673455 1.813566,-0.8710062 -0.09804,0.2505555 -0.172797,0.5103263 -0.296399,0.7505871 -0.173376,0.3288065 -0.336631,0.6673511 -0.547374,0.9746664 -0.260399,0.3797267 -0.58154,0.7102862 -0.901521,1.039071 -1.063977,0.9410642 -2.217357,1.7650632 -3.445351,2.4813272 -1.26461,0.728313 -2.82915,1.750063 -4.270759,2.285626 -0.621975,0.231066 -1.291845,0.334894 -1.9456,0.422066 -0.193143,0.0062 -0.386282,0.02451 -0.579429,0.01847 -0.60252,-0.01882 -1.213077,-0.189075 -1.812365,-0.253445 0,0 1.685311,-1.169017 1.685311,-1.169017 z"
     inkscape:connector-curvature="0" />
  <path
     id="path103"
     d="m 89.339898,14.845852 c -0.08876,0.02671 -0.179492,0.04759 -0.266293,0.08012 -0.409041,0.153269 -0.783787,0.390968 -0.72318,0.3571 0.43844,-0.245008 0.860502,-0.522626 1.317162,-0.731718 0.158096,-0.07239 -0.281259,0.205095 -0.413525,0.317967 -0.139219,0.118805 -0.266616,0.250803 -0.399924,0.376205 -0.129549,0.178071 -0.277126,0.344331 -0.388647,0.534214 -0.311175,0.529822 -0.605133,1.443462 -0.197,2.011883 0.06076,0.08462 0.16409,0.12838 0.246135,0.192569 0.10891,0.01911 0.216157,0.05776 0.326729,0.05732 0.486405,-0.0019 0.970577,-0.240815 1.388103,-0.461123 0.170685,-0.09006 0.673514,-0.377047 0.502787,-0.287065 -0.411088,0.216667 -0.816027,0.444804 -1.22404,0.667206 0.722959,-0.491294 1.274323,-1.155069 1.781438,-1.854955 0.520849,-0.688083 0.398293,-0.500981 2.040124,-0.93196 0.07531,-0.01977 -0.169322,0.802196 -0.178397,0.834212 -0.104112,0.509972 -0.375638,1.230068 -0.273493,1.751031 0.01739,0.08868 0.06254,0.169561 0.09381,0.254342 0.47251,0.69921 1.108795,0.448413 1.773858,0.197559 0.148377,-0.07994 0.591266,-0.323799 0.445131,-0.239828 -2.199113,1.263624 -1.2708,0.759092 -0.735871,0.339026 0.49411,-0.388011 0.896479,-0.844608 1.300923,-1.321184 0.558876,-0.646406 0.914457,-1.417525 1.316214,-2.160515 0.513034,-0.691625 0.267925,-0.401948 1.988696,-1.171642 0.0599,-0.02681 0.11136,0.07158 0.15764,0.118176 0.18202,0.183262 0.29081,0.440111 0.402,0.667289 0.24353,0.634312 0.470882,1.314726 0.37874,2.005002 -0.018,0.135085 -0.0623,0.26536 -0.0934,0.39804 -0.13307,0.300881 -0.15158,0.404814 -0.3702,0.655149 -0.12988,0.148728 -0.3787,0.346449 -0.55024,0.447594 -1.912402,1.127602 -1.311904,0.875104 -2.266485,1.253905 -0.696223,0.300865 -1.70815,0.998646 1.335854,-0.805555 0.0062,-0.0037 -0.01721,-0.01939 -0.01003,-0.01907 0.09669,0.0043 0.188277,0.04502 0.28255,0.06696 0.982101,0.01412 1.920733,-0.326518 2.826793,-0.667211 0.24437,-0.104611 0.49067,-0.204827 0.73311,-0.313832 0.2552,-0.11474 0.50991,-0.230976 0.75958,-0.357301 0.25262,-0.12782 0.98458,-0.558298 0.74667,-0.404826 -0.30767,0.198473 -0.61401,0.410477 -0.95641,0.540128 -0.24763,0.09377 0.45182,-0.277041 0.66745,-0.430713 0.21818,-0.15549 0.42175,-0.330533 0.63262,-0.495799 0.50326,-0.421912 0.95503,-0.901398 1.32905,-1.441797 0.15637,-0.225928 0.33142,-0.474975 0.3414,-0.757163 -0.0798,0.05187 -0.15788,0.106425 -0.238,0.157817 -0.85937,0.551187 0.26747,-0.234943 1.11069,-0.575204 0.15006,-0.06056 -0.24212,0.215299 -0.35396,0.332257 -0.11686,0.122211 -0.22078,0.256166 -0.33117,0.384248 -0.44995,0.636292 -0.90657,1.380158 -0.90714,2.190275 -9e-5,0.128462 0.0302,0.255142 0.0453,0.382712 0.0446,0.111248 0.0735,0.230099 0.13369,0.333744 0.37034,0.637958 1.16956,0.765883 1.82791,0.880716 0.4496,0.08197 0.89974,0.0694 1.35209,0.03708 0,0 -1.62634,1.193385 -1.62634,1.193385 v 0 c -0.45883,0.01073 -0.91599,0.0043 -1.36926,-0.08224 -0.73589,-0.146862 -1.54202,-0.337072 -1.94736,-1.043476 -0.0681,-0.11865 -0.10351,-0.253252 -0.15527,-0.379878 -0.0209,-0.141706 -0.0583,-0.281949 -0.0626,-0.425117 -0.0258,-0.841602 0.42118,-1.626153 0.86583,-2.303665 0.91619,-1.145754 0.94772,-0.968011 2.71648,-2.020034 0.15179,-0.09028 0.39444,-0.21871 0.59041,-0.152883 0.0722,0.02426 0.11303,0.102169 0.16955,0.153254 0.006,0.0732 0.0326,0.14741 0.0189,0.219609 -0.0378,0.200171 -0.25337,0.541653 -0.34935,0.684342 -0.37601,0.558981 -0.8287,1.061475 -1.33928,1.50064 -0.20815,0.171135 -0.4076,0.353447 -0.62446,0.513404 -0.21493,0.158533 -0.43982,0.303791 -0.66911,0.440731 -1.51109,0.902464 -3.01947,1.818554 -4.665632,2.45566 -0.93949,0.343467 -1.941476,0.718153 -2.958507,0.603668 -0.07451,-0.02606 -0.153485,-0.04176 -0.223516,-0.07817 -0.999129,-0.519453 1.185554,-1.248791 1.897743,-1.578456 0.74172,-0.344206 0.41005,-0.199836 -1.216225,0.744841 -0.09873,0.05735 0.197043,-0.11571 0.29182,-0.179388 0.30904,-0.207637 0.546284,-0.442335 0.692713,-0.792334 0.03819,-0.12056 0.09069,-0.237489 0.114559,-0.36168 0.125179,-0.651434 -0.103513,-1.308681 -0.343963,-1.903423 -0.08134,-0.158438 -0.141912,-0.295786 -0.248598,-0.437363 -0.0304,-0.04034 -0.06144,-0.08316 -0.104258,-0.109951 -0.02301,-0.0144 -0.104132,0.0084 -0.08121,-0.0061 2.524392,-1.601579 2.102062,-1.308421 1.514552,-0.8936 -0.17742,0.277402 -0.30495,0.57352 -0.46394,0.861603 -0.260086,0.471288 -0.562623,0.917855 -0.884557,1.348756 -0.298866,0.364023 -0.486011,0.610159 -0.820787,0.944216 -1.015159,1.012975 -2.326098,1.673792 -3.60603,2.290358 -0.830081,0.260831 -1.426458,0.361303 -1.961845,-0.445009 -0.04098,-0.103285 -0.09799,-0.201575 -0.12294,-0.309856 -0.127556,-0.553551 0.154394,-1.268142 0.246019,-1.813282 0.06641,-0.232804 0.101249,-0.341204 0.152854,-0.569696 0.01389,-0.06149 -0.01723,-0.152173 0.03621,-0.185605 3.769414,-2.358153 2.119974,-1.317444 1.648813,-0.823078 -0.535596,0.703138 -1.058786,1.418276 -1.79357,1.934065 -0.727855,0.437153 -1.451844,0.880809 -2.183565,1.31146 -0.570767,0.335923 -1.314039,0.744512 -2.006692,0.641497 -0.132463,-0.0197 -0.25247,-0.08943 -0.378704,-0.134142 -0.09509,-0.09226 -0.212862,-0.165828 -0.28527,-0.276784 -0.42728,-0.65475 -0.188752,-1.570841 0.13861,-2.202977 0.102603,-0.198127 0.239272,-0.376665 0.358908,-0.564997 0.996728,-1.006959 1.342028,-1.07759 2.911272,-1.983779 0.328457,-0.189673 0.685229,-0.329083 1.054237,-0.414691 0,0 -1.63349,1.236789 -1.63349,1.236789 z"
     inkscape:connector-curvature="0" />
</svg>
